# xmcd
#
# Track frame offsets: 
#        150
#        17390
#        38582
#        57575
#        77242
#        99037
#        123522
#        141607
#        158240
#        175652
#        199245
#        221320
#
# Disc length: 3233 seconds
#
# Revision: 0
# Processed by: cddbd v1.4PL0 Copyright (c) Steve Scherf et al.
# Submitted via: ExactAudioCopy v0.95a4
#
DISCID=9c0c9f0c
DTITLE=정재욱 - Alone
DYEAR=2003
DGENRE=Ballad
TTITLE0=입맞춤
TTITLE1=그게 나인걸
TTITLE2=Just
TTITLE3=하늘도 모르는 사랑
TTITLE4=고백
TTITLE5=행복 하세요
TTITLE6=By your true love
TTITLE7=내가 남았다면
TTITLE8=부디
TTITLE9=왜 사랑했던 걸까
TTITLE10=널 있는 그대로
TTITLE11=그게 나인걸 (Instrumental)
EXTD=
EXTT0=
EXTT1=
EXTT2=
EXTT3=
EXTT4=
EXTT5=
EXTT6=
EXTT7=
EXTT8=
EXTT9=
EXTT10=
EXTT11=
PLAYORDER=
